<svg xmlns="http://www.w3.org/2000/svg" x="0px" y="0px" viewBox="5.7399001121521 7.474699020385742 36.52020263671875 33.05060005187988" enable-background="new 0 0 48 48">
<g>
	<g>
		<g>
			<g>
				
					<path fill="none" stroke="#F51C1CFF" stroke-width="2.5" stroke-linecap="round" stroke-linejoin="round" stroke-miterlimit="10" d="      M8.8939,24c0.0065-3.9072,1.4922-7.8143,4.4766-10.7987s6.8915-4.47,10.7987-4.4766"/>
				
					<polyline fill="none" stroke="#F51C1CFF" stroke-width="2.5" stroke-linecap="round" stroke-linejoin="round" stroke-miterlimit="10" points="      10.7979,22.096 8.8939,24 6.9899,22.096     "/>
			</g>
			<g>
				
					<path fill="none" stroke="#F51C1CFF" stroke-width="2.5" stroke-linecap="round" stroke-linejoin="round" stroke-miterlimit="10" d="      M34.0583,12.3615c0.3116,0.2653,0.6151,0.5452,0.9096,0.8398"/>
				
					<path fill="none" stroke="#F51C1CFF" stroke-width="2.5" stroke-linecap="round" stroke-linejoin="round" stroke-miterlimit="10" d="      M29.0487,9.5255c0.6864,0.2309,1.3598,0.5119,2.0143,0.843"/>
			</g>
		</g>
		<g>
			<g>
				
					<path fill="none" stroke="#F51C1CFF" stroke-width="2.5" stroke-linecap="round" stroke-linejoin="round" stroke-miterlimit="10" d="      M39.1061,24c-0.0065,3.9072-1.4922,7.8143-4.4766,10.7987c-2.9844,2.9844-6.8915,4.47-10.7987,4.4766"/>
				
					<polyline fill="none" stroke="#F51C1CFF" stroke-width="2.5" stroke-linecap="round" stroke-linejoin="round" stroke-miterlimit="10" points="      37.2021,25.904 39.1061,24 41.0101,25.904     "/>
			</g>
			<g>
				
					<path fill="none" stroke="#F51C1CFF" stroke-width="2.5" stroke-linecap="round" stroke-linejoin="round" stroke-miterlimit="10" d="      M13.9417,35.6385c-0.3116-0.2653-0.6151-0.5452-0.9096-0.8397"/>
				
					<path fill="none" stroke="#F51C1CFF" stroke-width="2.5" stroke-linecap="round" stroke-linejoin="round" stroke-miterlimit="10" d="      M18.9513,38.4745c-0.6864-0.2309-1.3598-0.5119-2.0143-0.843"/>
			</g>
		</g>
	</g>
	
		<polyline fill="none" stroke="#F51C1CFF" stroke-width="2.5" stroke-linecap="round" stroke-linejoin="round" stroke-miterlimit="10" points="   25.3136,16.7832 25.3136,14.5782 22.6864,14.5782 22.6864,16.7832  "/>
	
		<line fill="none" stroke="#F51C1CFF" stroke-width="2.5" stroke-linecap="round" stroke-linejoin="round" stroke-miterlimit="10" x1="21.8852" y1="14.5782" x2="26.1148" y2="14.5782"/>
	
		<line fill="none" stroke="#F51C1CFF" stroke-width="2.5" stroke-linecap="round" stroke-linejoin="round" stroke-miterlimit="10" x1="29.9677" y1="19.422" x2="31.0795" y2="18.3102"/>
	
		<line fill="none" stroke="#F51C1CFF" stroke-width="2.5" stroke-linecap="round" stroke-linejoin="round" stroke-miterlimit="10" x1="18.0275" y1="19.422" x2="16.9157" y2="18.3102"/>
</g>
<g>
	
		<circle fill="#FFFFFF" stroke="#000000" stroke-width="2.5" stroke-linecap="round" stroke-linejoin="round" stroke-miterlimit="10" cx="24" cy="25.1876" r="8.0909"/>
</g>
<g>
	<g>
		<g>
			
				<line fill="none" stroke="#F51C1CFF" stroke-width="2.5" stroke-linecap="round" stroke-linejoin="round" stroke-miterlimit="10" x1="18.5129" y1="25.1876" x2="18.5129" y2="25.1876"/>
			
				<line fill="none" stroke="#F51C1CFF" stroke-width="2.5" stroke-linecap="round" stroke-linejoin="round" stroke-miterlimit="10" x1="29.4735" y1="25.1876" x2="29.4735" y2="25.1876"/>
			
				<line fill="none" stroke="#F51C1CFF" stroke-width="2.5" stroke-linecap="round" stroke-linejoin="round" stroke-miterlimit="10" x1="20.118" y1="29.0628" x2="20.118" y2="29.0628"/>
			
				<line fill="none" stroke="#F51C1CFF" stroke-width="2.5" stroke-linecap="round" stroke-linejoin="round" stroke-miterlimit="10" x1="27.8683" y1="21.3125" x2="27.8683" y2="21.3125"/>
			
				<line fill="none" stroke="#F51C1CFF" stroke-width="2.5" stroke-linecap="round" stroke-linejoin="round" stroke-miterlimit="10" x1="23.9932" y1="30.6679" x2="23.9932" y2="30.6679"/>
			
				<line fill="none" stroke="#F51C1CFF" stroke-width="2.5" stroke-linecap="round" stroke-linejoin="round" stroke-miterlimit="10" x1="23.9932" y1="19.7073" x2="23.9932" y2="19.7073"/>
			
				<line fill="none" stroke="#F51C1CFF" stroke-width="2.5" stroke-linecap="round" stroke-linejoin="round" stroke-miterlimit="10" x1="27.8683" y1="29.0628" x2="27.8683" y2="29.0628"/>
			
				<line fill="none" stroke="#F51C1CFF" stroke-width="2.5" stroke-linecap="round" stroke-linejoin="round" stroke-miterlimit="10" x1="20.118" y1="21.3125" x2="20.118" y2="21.3125"/>
		</g>
		
			<line fill="none" stroke="#F51C1CFF" stroke-width="2.5" stroke-linecap="round" stroke-linejoin="round" stroke-miterlimit="10" x1="24" y1="25.1876" x2="26.1148" y2="25.1876"/>
		
			<circle fill="#E6E9EC" stroke="#F51C1CFF" stroke-width="2.5" stroke-linecap="round" stroke-linejoin="round" stroke-miterlimit="10" cx="24" cy="25.1876" r="0.466"/>
	</g>
</g>
</svg>